HIERARCHY
ROOT Hips
{
  OFFSET 3.13124 94.3669 -3.18751
  CHANNELS  6 Xposition Yposition Zposition Zrotation Xrotation Yrotation
  JOINT LeftUpLeg
  {
    OFFSET 8.64259 1.95398 -2.38835
    CHANNELS 3 Zrotation Xrotation Yrotation
    JOINT LeftLeg
    {
      OFFSET 43.7702 0 0
      CHANNELS 3 Zrotation Xrotation Yrotation
      JOINT LeftFoot
      {
        OFFSET 40.6238 0 0
        CHANNELS 3 Zrotation Xrotation Yrotation
        JOINT LeftToeBase
        {
          OFFSET 12.7242 0 0
          CHANNELS 3 Zrotation Xrotation Yrotation
          End Site
          {
            OFFSET 0 0 0
          }
        }
      }
    }
  }
  JOINT RightUpLeg
  {
    OFFSET -8.2249 1.95398 -2.59336
    CHANNELS 3 Zrotation Xrotation Yrotation
    JOINT RightLeg
    {
      OFFSET 43.5653 0 0
      CHANNELS 3 Zrotation Xrotation Yrotation
      JOINT RightFoot
      {
        OFFSET 40.6238 0 0
        CHANNELS 3 Zrotation Xrotation Yrotation
        JOINT RightToeBase
        {
          OFFSET 12.7242 0 0
          CHANNELS 3 Zrotation Xrotation Yrotation
          End Site
          {
            OFFSET 0 0 0
          }
        }
      }
    }
  }
  JOINT Spine
  {
    OFFSET 0.165834 0.87714 6.61349
    CHANNELS 3 Zrotation Xrotation Yrotation
    JOINT Spine1
    {
      OFFSET 7.38962 1.71661e-005 0
      CHANNELS 3 Zrotation Xrotation Yrotation
      JOINT Spine2
      {
        OFFSET 11.9445 1.14441e-005 0
        CHANNELS 3 Zrotation Xrotation Yrotation
        JOINT Spine3
        {
          OFFSET 14.7254 4.19617e-005 0
          CHANNELS 3 Zrotation Xrotation Yrotation
          JOINT Spine4
          {
            OFFSET 10.9679 0 0
            CHANNELS 3 Zrotation Xrotation Yrotation
            JOINT RightShoulder
            {
              OFFSET 2.46616 -1.6653 3.69651
              CHANNELS 3 Zrotation Xrotation Yrotation
              JOINT RightArm
              {
                OFFSET 13.0012 0 0
                CHANNELS 3 Zrotation Xrotation Yrotation
                JOINT RightForeArm
                {
                  OFFSET 28.7848 1.52588e-005 0
                  CHANNELS 3 Zrotation Xrotation Yrotation
                  JOINT RightHand
                  {
                    OFFSET 26.5688 1.52588e-005 0
                    CHANNELS 3 Zrotation Xrotation Yrotation
                    End Site
                    {
                      OFFSET 0 0 0
                    }
                  }
                }
              }
            }
            JOINT LeftShoulder
            {
              OFFSET 2.38034 -1.29275 -3.75231
              CHANNELS 3 Zrotation Xrotation Yrotation
              JOINT LeftArm
              {
                OFFSET 16.3182 6.10352e-005 0
                CHANNELS 3 Zrotation Xrotation Yrotation
                JOINT LeftForeArm
                {
                  OFFSET 27.0901 0 0
                  CHANNELS 3 Zrotation Xrotation Yrotation
                  JOINT LeftHand
                  {
                    OFFSET 24.5451 1.52588e-005 0
                    CHANNELS 3 Zrotation Xrotation Yrotation
                    End Site
                    {
                      OFFSET 0 0 0
                    }
                  }
                }
              }
            }
            JOINT Neck
            {
              OFFSET 5.0226 -0.0266342 0
              CHANNELS 3 Zrotation Xrotation Yrotation
              JOINT Head
              {
                OFFSET 6.69363 2.86102e-005 0
                CHANNELS 3 Zrotation Xrotation Yrotation
                End Site
                {
                  OFFSET 0 0 0
                }
              }
            }
          }
        }
      }
    }
  }
}
MOTION
Frames:	12
Frame Time:	0.0333333
-73.0295 81.6213 -93.1283 -35.0433 -50.1486 -47.5129 -166.846 75.0165 87.3289 -74.5353 -11.9087 -16.8023 62.4867 -6.38571 -3.93067 28.7808 5.2385e-006 6.25729e-006 -172.565 74.9088 77.4033 -50.0287 0.344889 -0.416624 67.9526 15.9655 8.28001 28.7808 1.426e-005 2.76483e-005 -4.16462 15.7863 -89.2685 -4.91095 -1.01109 -5.14758 -16.5915 -1.23636 -5.09829 -39.0452 0.580445 -5.21355 -19.0325 0.580455 -5.21354 88.8068 -21.2442 -113.315 10.6995 -16.7857 14.6501 2.7007 -4.02159 -62.5593 -5.37983 -0.320013 -0.0162417 -84.8491 7.23081 65.1153 8.31428 -14.7236 -18.7992 38.8146 4.23669 -75.7178 2.18792 0.117605 1.49138 15.2596 -5.3294 -15.4841 -0.660576 -0.480144 31.899 
-71.8987 82.4118 -91.9808 -40.3392 -48.7691 -52.2171 -167.921 72.3303 89.2189 -74.1691 -12.6508 -16.4919 62.856 -7.14033 -4.32464 28.7808 5.2385e-006 6.25729e-006 -175.349 71.9846 80.8009 -47.2155 -0.541877 -0.415008 66.3971 16.5147 8.8925 28.7808 1.426e-005 2.76483e-005 -4.04352 15.6896 -89.2409 -4.72955 -1.18518 -5.21613 -16.4102 -1.4133 -5.15916 -38.8614 0.434848 -5.33106 -18.8488 0.434859 -5.33106 90.8838 -28.3549 -105.601 10.3463 -21.7946 15.6421 6.21231 -5.23453 -59.655 -5.37983 -0.320013 -0.0162417 -84.8669 10.3525 60.8727 2.82509 -3.56717 -12.4237 33.902 1.44782 -81.4122 16.0053 1.68797 6.70422 12.3875 -5.63937 -20.4921 -0.171357 0.314095 36.2059 
-71.0065 83.5423 -90.623 -46.46 -47.9305 -57.4591 -168.606 68.0483 90.5099 -72.7279 -12.014 -15.002 62.7003 -8.71325 -5.26316 28.7808 5.2385e-006 6.25729e-006 -177.033 67.2656 82.8582 -43.7281 0.0105982 -0.328166 64.7232 17.0421 9.5429 28.7808 1.426e-005 2.76483e-005 -3.88436 15.5522 -89.1664 -4.47777 -1.53964 -5.23536 -16.158 -1.76826 -5.16283 -38.6086 0.102397 -5.45549 -18.5959 0.102401 -5.4555 93.5579 -33.5103 -98.7117 10.9091 -28.3182 17.64 5.60216 -5.30725 -62.9876 -5.37983 -0.320013 -0.0162417 -85.1549 12.3326 56.1314 -3.6903 7.2772 -8.00286 30.1475 1.2823 -82.7966 30.7313 3.0977 6.36568 7.29651 -5.49393 -24.549 2.49117 1.42849 40.1539 
-70.3808 85.0007 -89.1536 -52.9439 -46.7306 -62.8012 -168.664 63.0412 91.4664 -70.3216 -9.37859 -12.4481 61.6429 -10.5744 -6.5301 28.7808 5.2385e-006 6.25729e-006 -178.256 61.7827 84.6397 -39.6492 -0.547902 -0.294077 62.13 15.7775 9.37296 28.7808 1.426e-005 2.76483e-005 -3.68042 15.3481 -89.1098 -4.09215 -1.98184 -5.18838 -15.7716 -2.20799 -5.09649 -38.2246 -0.333579 -5.54304 -18.2119 -0.333578 -5.54306 97.516 -36.1152 -90.7269 14.0444 -44.3778 20.2816 -2.80628 -1.19396 -74.2382 -5.37983 -0.320013 -0.0162417 -85.5977 12.2492 54.0912 -9.63111 16.3447 -7.97383 27.3698 1.43063 -81.8705 42.2801 2.85021 2.78592 2.54194 -5.04418 -25.559 4.56983 1.84154 41.6878 
-70.0248 86.7477 -87.5505 -58.9084 -45.0821 -67.8621 -168.476 57.7127 91.8772 -67.026 -4.72312 -8.8447 59.4661 -12.9995 -8.40665 28.7808 5.2385e-006 6.25729e-006 -178.95 55.2782 85.7345 -33.7459 -0.852725 -0.228718 59.2226 15.2179 9.63922 28.7808 1.426e-005 2.76483e-005 -3.39455 15.0952 -89.1205 -3.5935 -2.43311 -5.00029 -15.2714 -2.65055 -4.88872 -37.7327 -0.820419 -5.4988 -17.7201 -0.820406 -5.49882 96.6799 -37.3443 -92.112 31.4423 -57.2206 38.8269 -18.4756 10.1832 -85.0295 -5.37983 -0.320013 -0.0162417 -86.0053 11.5509 53.4574 -13.749 23.227 -10.0327 24.1951 1.35644 -80.5507 50.5151 1.09825 -1.9841 0.993903 -5.30165 -25.1642 4.63505 1.21889 42.2461 
-70.0872 88.6181 -85.7198 -64.2705 -44.1038 -71.9311 -168.747 51.4199 91.5716 -62.8267 1.96116 -3.45137 58.0932 -15.2346 -10.1178 28.7808 5.2385e-006 6.25729e-006 -179.327 48.2984 86.2193 -27.9095 -1.20572 -0.175541 56.1346 12.8697 8.75483 28.7808 1.426e-005 2.76483e-005 -2.97602 14.8916 -89.5213 -3.17804 -3.02818 -4.96953 -14.8544 -3.24371 -4.83182 -37.3216 -1.39739 -5.64772 -17.309 -1.39737 -5.64773 98.1698 -38.3294 -89.273 33.7559 -63.8385 38.7602 -29.3068 20.0213 -87.3449 -5.37983 -0.320013 -0.0162417 -85.66 10.6505 56.6776 -14.7306 28.9395 -17.4558 20.1586 1.45479 -78.935 55.9333 -1.54158 -6.97526 4.60867 -6.43032 -22.9639 0.610194 -1.0949 40.8522 
-70.5014 90.5725 -83.6999 -68.9557 -44.2735 -75.3224 -169.773 44.3101 90.4003 -58.5218 9.77889 3.51181 56.8602 -17.8135 -12.0866 28.7808 5.2385e-006 6.25729e-006 -179.78 39.1596 85.9309 -18.7686 1.16855 0.0282912 52.4541 13.2146 9.71463 28.7808 1.426e-005 2.76483e-005 -2.68112 14.6163 -90.13 -2.62293 -3.83843 -4.97062 -14.2971 -4.05323 -4.79722 -36.774 -2.17011 -5.8916 -16.7614 -2.17009 -5.8916 97.4839 -40.3426 -90.273 18.6757 -59.4599 21.7886 -32.5937 23.7984 -90.226 -5.37983 -0.320013 -0.0162417 -85.8205 7.89326 60.1453 -11.7995 33.8936 -25.491 14.8067 1.0663 -77.5946 58.9749 -4.62653 -12.0143 6.84093 -6.63682 -19.7203 -2.71403 -2.74169 38.9414 
-71.0592 92.3999 -81.5282 -73.7813 -44.5919 -79.6428 -170.904 36.4263 88.7336 -54.1765 13.9275 7.96818 56.0234 -18.2298 -12.5671 28.7808 5.2385e-006 6.25729e-006 179.047 27.3631 84.987 -4.38822 4.01562 0.248408 45.8522 12.6988 10.6999 28.7808 1.426e-005 2.76483e-005 -2.65539 14.209 -90.5432 -1.8088 -4.71968 -4.77736 -13.4792 -4.92514 -4.56522 -35.978 -3.06858 -5.97201 -15.9654 -3.06859 -5.97201 95.2545 -43.4676 -93.6761 3.83324 -40.7606 4.31671 -25.3281 18.342 -95.0792 -5.37983 -0.320013 -0.0162417 -86.8583 3.27546 61.7279 -6.92382 37.7484 -31.4799 8.15474 -0.0409654 -76.9437 60.0516 -7.98769 -17.359 5.77212 -5.84274 -13.9813 -3.352 -3.47762 35.9171 
-71.941 93.7362 -79.3506 -78.5459 -43.89 -84.1613 -171.425 28.9907 87.1199 -50.3109 14.6649 10.37 55.6944 -17.595 -12.2462 28.7808 5.2385e-006 6.25729e-006 178.502 22.7445 83.8436 -3.91567 3.5949 0.218093 45.4038 12.0321 10.2481 28.7808 1.426e-005 2.76483e-005 -2.89051 13.7162 -90.3436 -0.860401 -5.26122 -4.64849 -12.5282 -5.46052 -4.41249 -35.0432 -3.62371 -6.0121 -15.0305 -3.62369 -6.01209 91.2174 -47.9833 -99.3897 -3.97836 -20.3068 -4.79231 -17.5318 11.0709 -96.7867 -5.37983 -0.320013 -0.0162417 -87.2671 -1.44041 64.8663 -3.41643 40.5246 -38.3519 0.062281 -1.70932 -76.9523 58.7438 -12.284 -24.9249 6.88949 -4.56949 -6.37594 -8.04143 -4.92309 31.8369 
-73.0216 95.0302 -77.3815 -81.5786 -42.4012 -86.7993 -171.815 22.7045 86.0005 -45.8455 14.4713 12.4327 54.9655 -16.8875 -11.9522 28.7808 5.2385e-006 6.25729e-006 178.389 19.9517 83.5611 -3.90806 1.95379 0.119536 42.3007 10.8544 9.89934 28.7808 1.426e-005 2.76483e-005 -2.98515 13.0286 -90.2221 0.479795 -5.41356 -4.83713 -11.188 -5.62095 -4.59427 -33.6998 -3.71265 -6.23742 -13.6872 -3.71262 -6.23743 86.139 -50.1335 -106.669 -7.08946 -6.9021 -10.3197 -12.4615 6.29319 -94.9043 -5.37983 -0.320013 -0.0162417 -87.7234 -7.13746 67.7892 -7.21583 38.5966 -39.2315 -1.09459 -1.478 -76.0635 44.0662 -11.7298 -31.1133 6.39574 -2.32569 2.54033 -12.3849 -5.37222 27.9175 
-74.1719 96.3293 -75.6592 -83.2454 -40.6122 -87.4953 -171.902 17.8492 85.7066 -41.7522 15.3613 14.9081 53.2444 -16.2126 -11.9037 28.7808 5.2385e-006 6.25729e-006 178.686 18.3446 84.1535 -3.89037 1.12546 0.0663493 36.9925 10.4387 10.5961 28.7808 1.426e-005 2.76483e-005 -2.91932 12.3909 -90.2799 1.73553 -5.30192 -5.25917 -9.93429 -5.52796 -5.02099 -32.4278 -3.48013 -6.60552 -12.4152 -3.48011 -6.60552 81.2218 -48.3183 -114.721 -4.54897 5.61776 -15.5488 -8.30299 3.44404 -93.828 -5.37983 -0.320013 -0.0162417 -86.7622 -11.5368 72.8718 -14.5243 35.3848 -38.7254 -2.22787 -1.67551 -75.4042 26.1968 -8.81616 -37.8575 8.5421 1.43233 12.553 -19.81 -4.68347 21.531 
-75.3439 97.5004 -74.2942 -84.8462 -38.6064 -88.3909 -171.448 13.7981 86.5246 -38.0742 17.2992 14.8649 50.9237 -14.6905 -11.4431 28.7808 5.2385e-006 6.25729e-006 178.954 17.0124 84.4483 -3.88479 0.764641 0.0402878 31.4706 11.158 12.5156 28.7808 1.426e-005 2.76483e-005 -2.91119 11.4953 -89.8267 3.52284 -5.12053 -4.88194 -8.14637 -5.33022 -4.65202 -30.6498 -3.41975 -6.19198 -10.6372 -3.41975 -6.192 70.3072 -52.4902 -128.593 -4.58459 14.0209 -18.3725 -6.28193 1.96252 -93.8465 -5.37983 -0.320013 -0.0162417 -86.9113 -20.4992 76.3394 -27.0873 26.9863 -28.8447 -2.72073 -3.31194 -72.35 1.1168 -1.40013 -45.8155 -0.785554 2.85367 14.7952 -16.6491 -1.85892 21.0166 
